{"title":"Toy Story 3.2010.DVDScr.2D.XviD-MAGNET","uid":5710741,"size":720278865,"categoryP":"video","categoryS":"movies","magnet":"?xt=urn:btih:765f454c4c885baaf988fdfdc9e82b50de5e4f14&amp;dn=Toy+Story+3.2010.DVDScr.2D.XviD-MAGNET&amp;tr=udp%3A%2F%2Ftracker.openbittorrent.com%3A80&amp;tr=udp%3A%2F%2Fopen.demonii.com%3A1337&amp;tr=udp%3A%2F%2Ftracker.coppersurfer.tk%3A6969&amp;tr=udp%3A%2F%2Fexodus.desync.com%3A6969","seeders":0,"leechers":1,"uploader":"hiest","files":3,"time":1279884552,"description":"Woody, Buzz and the whole gang are back. As their owner Andy prepares to depart for college, his loyal toys find themselves in daycare where untamed tots with their sticky little fingers do not play nice. So, it's all for one and one for all as they join Barbie's counterpart Ken, a thespian hedgehog named Mr. Pricklepants and a pink, strawberry-scented teddy bear called Lots-o'-Huggin' Bear to plan their great escape. \n\n\nUser Rating:9.5/10\nMOVIEmeter: Up 100% in popularity this week &lt;a href=&quot;\nhttp://www.imdb.com/title/tt0435761/&quot; rel=&quot;nofollow&quot; target=&quot;_NEW&quot;&gt;\nhttp://www.imdb.com/title/tt0435761/&lt;/a&gt;\nGenre:Animation | Adventure | Comedy | Family | Fantasy\n\n\nVideo\nFormat : xvid\nCodec ID : xvid\nDuration : 1h 41mn\nBit rate : 810 Kbps\nWidth : 720 pixels\nHeight : 320 pixels\nDisplay aspect ratio : 2.25:1\nFrame rate : 29.970 fps\nBits/(Pixel*Frame) : 0.117\nStream size : 589 MiB (86%)\n\nAudio\nID : 1\nFormat : MPEG Audio\nFormat version : Version 1\nFormat profile : Layer 3\nCodec ID : 55\nCodec ID/Hint : MP3\nDuration : 1h 34mn\nBit rate mode : Constant\nBit rate : 128 Kbps\nChannel(s) : 2 channels\nSampling rate : 48.0 KHz\nStream size : 86.2 MiB (13%)\nAlignment : Aligned on interleaves\nInterleave, duration : 36 ms (1.08 video frame)\nInterleave, preload duration : 504 ms\nWriting library : LAMELAME_MAJOR_VERSI\n\n\n\nScreenshots\n &lt;a href=&quot;\nhttp://postimg.com/image/19000/18309.jpg&quot; rel=&quot;nofollow&quot; target=&quot;_NEW&quot;&gt;\nhttp://postimg.com/image/19000/18309.jpg&lt;/a&gt;\n &lt;a href=&quot;\nhttp://postimg.com/image/19000/18310.jpg&quot; rel=&quot;nofollow&quot; target=&quot;_NEW&quot;&gt;\nhttp://postimg.com/image/19000/18310.jpg&lt;/a&gt;\n &lt;a href=&quot;\nhttp://postimg.com/image/19000/18311.jpg&quot; rel=&quot;nofollow&quot; target=&quot;_NEW&quot;&gt;\nhttp://postimg.com/image/19000/18311.jpg&lt;/a&gt;","torrent":{"xt":"urn:btih:765f454c4c885baaf988fdfdc9e82b50de5e4f14","amp;dn":"Toy+Story+3.2010.DVDScr.2D.XviD-MAGNET","amp;tr":["udp%3A%2F%2Ftracker.openbittorrent.com%3A80","udp%3A%2F%2Fopen.demonii.com%3A1337","udp%3A%2F%2Ftracker.coppersurfer.tk%3A6969","udp%3A%2F%2Fexodus.desync.com%3A6969"],"infoHash":"765f454c4c885baaf988fdfdc9e82b50de5e4f14","infoHashBuffer":{"type":"Buffer","data":[118,95,69,76,76,136,91,170,249,136,253,253,201,232,43,80,222,94,79,20]},"announce":[],"urlList":[]}}